<svg width="29" height="28" viewBox="0 0 29 28" fill="none" xmlns="http://www.w3.org/2000/svg">
<rect x="0.5" width="28" height="28" rx="14" fill="#FFC53D"/>
<path d="M6.79932 14V19.775C6.79932 20.5408 7.61056 21.2753 9.05459 21.8168C10.4986 22.3583 12.4571 22.6625 14.4993 22.6625C16.5415 22.6625 18.5 22.3583 19.944 21.8168C21.3881 21.2753 22.1993 20.5408 22.1993 19.775V14" fill="white"/>
<path d="M6.79932 14V19.775C6.79932 20.5408 7.61056 21.2753 9.05459 21.8168C10.4986 22.3583 12.4571 22.6625 14.4993 22.6625C16.5415 22.6625 18.5 22.3583 19.944 21.8168C21.3881 21.2753 22.1993 20.5408 22.1993 19.775V14" stroke="#FFC53D" stroke-width="1.54" stroke-linejoin="round"/>
<path d="M6.79932 8.225V14C6.79932 14.7658 7.61056 15.5003 9.05459 16.0418C10.4986 16.5833 12.4571 16.8875 14.4993 16.8875C16.5415 16.8875 18.5 16.5833 19.944 16.0418C21.3881 15.5003 22.1993 14.7658 22.1993 14V8.225" fill="white"/>
<path d="M6.79932 8.225V14C6.79932 14.7658 7.61056 15.5003 9.05459 16.0418C10.4986 16.5833 12.4571 16.8875 14.4993 16.8875C16.5415 16.8875 18.5 16.5833 19.944 16.0418C21.3881 15.5003 22.1993 14.7658 22.1993 14V8.225" stroke="#FFC53D" stroke-width="1.54" stroke-linejoin="round"/>
<path d="M14.4993 11.1125C18.7519 11.1125 22.1993 9.81972 22.1993 8.225C22.1993 6.63028 18.7519 5.3375 14.4993 5.3375C10.2467 5.3375 6.79932 6.63028 6.79932 8.225C6.79932 9.81972 10.2467 11.1125 14.4993 11.1125Z" fill="white" stroke="#FFC53D" stroke-width="1.54" stroke-linejoin="round"/>
</svg>
