<svg width="24" height="24" viewBox="0 0 24 24" fill="none" xmlns="http://www.w3.org/2000/svg">
<g clip-path="url(#clip0_13_9333)">
<circle cx="12" cy="12" r="12" fill="black" fill-opacity="0.15"/>
<path d="M13.0147 12.0365L17.6017 16.6235C17.8831 16.9049 17.8841 17.3613 17.6017 17.6437C17.3203 17.9251 16.8639 17.9261 16.5815 17.6437L11.9945 13.0567L7.40743 17.6437C7.12603 17.9251 6.66962 17.9261 6.3872 17.6437C6.10581 17.3623 6.10481 16.9059 6.3872 16.6235L10.9752 12.0355L6.38818 7.44844C6.10679 7.16705 6.10579 6.71062 6.38818 6.42822C6.6696 6.14683 7.12601 6.14582 7.40842 6.42822L11.9954 11.0153L16.5825 6.42822C16.8639 6.14683 17.3203 6.14582 17.6027 6.42822C17.8841 6.70962 17.8851 7.16605 17.6027 7.44845L13.0147 12.0365H13.0147Z" fill="white"/>
</g>
<defs>
<clipPath id="clip0_13_9333">
<rect width="24" height="24" fill="white"/>
</clipPath>
</defs>
</svg>
