<svg width="28" height="28" viewBox="0 0 28 28" fill="none" xmlns="http://www.w3.org/2000/svg">
<rect width="28" height="28" rx="14" fill="#E5484D"/>
<path d="M8.12656 12.8883V11.223C8.12656 11.0535 8.18672 10.9086 8.30703 10.7883C8.42734 10.668 8.57227 10.6078 8.7418 10.6078C8.9168 10.6078 9.06445 10.668 9.18477 10.7883C9.30508 10.9086 9.36523 11.0535 9.36523 11.223V12.8391C9.36523 13.7687 9.55664 14.5836 9.93945 15.2836C10.3223 15.9836 10.8609 16.5277 11.5555 16.916C12.25 17.2988 13.0648 17.4902 14 17.4902C14.9352 17.4902 15.7473 17.2988 16.4363 16.916C17.1309 16.5277 17.6695 15.9836 18.0523 15.2836C18.4352 14.5836 18.6266 13.7687 18.6266 12.8391V11.223C18.6266 11.0535 18.6867 10.9086 18.807 10.7883C18.9273 10.668 19.075 10.6078 19.25 10.6078C19.4195 10.6078 19.5645 10.668 19.6848 10.7883C19.8051 10.9086 19.8652 11.0535 19.8652 11.223V12.8883C19.8652 13.9602 19.6438 14.9117 19.2008 15.743C18.7633 16.5742 18.1508 17.2414 17.3633 17.7445C16.5758 18.2422 15.6598 18.5348 14.6152 18.6223V20.5336H17.6586C17.8336 20.5336 17.9813 20.5938 18.1016 20.7141C18.2219 20.8344 18.282 20.982 18.282 21.157C18.282 21.3266 18.2219 21.4715 18.1016 21.5918C17.9813 21.7121 17.8336 21.7723 17.6586 21.7723H10.3332C10.1582 21.7723 10.0105 21.7121 9.89023 21.5918C9.76992 21.4715 9.70977 21.3266 9.70977 21.157C9.70977 20.982 9.76992 20.8344 9.89023 20.7141C10.0105 20.5938 10.1582 20.5336 10.3332 20.5336H13.3766V18.6223C12.332 18.5348 11.416 18.2422 10.6285 17.7445C9.84102 17.2414 9.22578 16.5742 8.78281 15.743C8.34531 14.9117 8.12656 13.9602 8.12656 12.8883ZM14 15.7266C13.4531 15.7266 12.9746 15.6008 12.5645 15.3492C12.1543 15.0977 11.8344 14.7504 11.6047 14.3074C11.375 13.859 11.2602 13.3422 11.2602 12.757V7.26914C11.2602 6.68398 11.375 6.16992 11.6047 5.72695C11.8344 5.27851 12.1543 4.92851 12.5645 4.67695C12.9746 4.42539 13.4531 4.29961 14 4.29961C14.5414 4.29961 15.0172 4.42539 15.4273 4.67695C15.843 4.92851 16.1629 5.27851 16.3871 5.72695C16.6168 6.16992 16.7316 6.68398 16.7316 7.26914V12.757C16.7316 13.3422 16.6168 13.859 16.3871 14.3074C16.1629 14.7504 15.843 15.0977 15.4273 15.3492C15.0172 15.6008 14.5414 15.7266 14 15.7266Z" fill="white"/>
</svg>
