<svg width="28" height="28" viewBox="0 0 28 28" fill="none" xmlns="http://www.w3.org/2000/svg">
<path d="M0 14C0 6.26801 6.26801 0 14 0C21.732 0 28 6.26801 28 14C28 21.732 21.732 28 14 28C6.26801 28 0 21.732 0 14Z" fill="#FFC53D"/>
<path fill-rule="evenodd" clip-rule="evenodd" d="M14.3527 5.0183C14.1348 4.89116 13.8652 4.89116 13.6473 5.0183L10.2409 7.00534L13.8745 9.1249C14.2418 9.33918 14.3659 9.81066 14.1516 10.178C13.9374 10.5453 13.4659 10.6694 13.0986 10.4551L8.71276 7.89678L6.47229 9.20371C6.25724 9.32916 6.125 9.55939 6.125 9.80836V18.1917C6.125 18.4407 6.25724 18.6709 6.47229 18.7964L12.5301 22.3301L12.5301 14.4385L8.67477 12.1896C8.30744 11.9753 8.18336 11.5038 8.39764 11.1365C8.61191 10.7692 9.08339 10.6451 9.45073 10.8594L13.7156 13.3472L21.3638 9.10808L14.3527 5.0183ZM21.875 10.5855L14.4293 14.7123C14.3152 14.7756 14.192 14.8068 14.0701 14.8089L14.0701 23.0736C14.1682 23.0638 14.2646 23.0332 14.3527 22.9818L21.5277 18.7964C21.7428 18.6709 21.875 18.4407 21.875 18.1917V10.5855Z" fill="white"/>
</svg>
